<svg width="91" height="28" viewBox="0 0 91 28" fill="none" xmlns="http://www.w3.org/2000/svg">
<g filter="url(#filter0_dd_1_2)">
<path d="M4.05114 0.545454H6.47159L11.3125 8.69318H11.517L16.358 0.545454H18.7784L12.4716 10.8068V18H10.358V10.8068L4.05114 0.545454ZM23.6257 0.545454V18H21.5121V0.545454H23.6257ZM27.8636 18V0.545454H29.9773V16.125H38.0909V18H27.8636ZM43.4773 0.545454V18H41.3636V0.545454H43.4773ZM57.2969 18V19.875H46.3878V18H57.2969ZM59.3871 18V0.545454H61.5007V16.125H69.6143V18H59.3871ZM84.3416 0.545454H86.4553V12.1023C86.4553 13.2955 86.174 14.3608 85.6115 15.2983C85.0547 16.2301 84.2678 16.9659 83.2507 17.5057C82.2337 18.0398 81.0405 18.3068 79.6712 18.3068C78.3018 18.3068 77.1087 18.0398 76.0916 17.5057C75.0746 16.9659 74.2848 16.2301 73.7223 15.2983C73.1655 14.3608 72.8871 13.2955 72.8871 12.1023V0.545454H75.0007V11.9318C75.0007 12.7841 75.1882 13.5426 75.5632 14.2074C75.9382 14.8665 76.4723 15.3864 77.1655 15.767C77.8643 16.142 78.6996 16.3295 79.6712 16.3295C80.6428 16.3295 81.478 16.142 82.1768 15.767C82.8757 15.3864 83.4098 14.8665 83.7791 14.2074C84.1541 13.5426 84.3416 12.7841 84.3416 11.9318V0.545454Z" fill="black"/>
<path d="M4.05114 0.545454V0.045454H3.15694L3.62516 0.807266L4.05114 0.545454ZM6.47159 0.545454L6.90144 0.29006L6.75611 0.045454H6.47159V0.545454ZM11.3125 8.69318L10.8826 8.94858L11.028 9.19318H11.3125V8.69318ZM11.517 8.69318V9.19318H11.8016L11.9469 8.94858L11.517 8.69318ZM16.358 0.545454V0.045454H16.0734L15.9281 0.29006L16.358 0.545454ZM18.7784 0.545454L19.2044 0.807266L19.6726 0.045454H18.7784V0.545454ZM12.4716 10.8068L12.0456 10.545L11.9716 10.6654V10.8068H12.4716ZM12.4716 18V18.5H12.9716V18H12.4716ZM10.358 18H9.85795V18.5H10.358V18ZM10.358 10.8068H10.858V10.6654L10.7839 10.545L10.358 10.8068ZM4.05114 1.04545H6.47159V0.045454H4.05114V1.04545ZM6.04174 0.800848L10.8826 8.94858L11.7424 8.43779L6.90144 0.29006L6.04174 0.800848ZM11.3125 9.19318H11.517V8.19318H11.3125V9.19318ZM11.9469 8.94858L16.7878 0.800848L15.9281 0.29006L11.0872 8.43779L11.9469 8.94858ZM16.358 1.04545H18.7784V0.045454H16.358V1.04545ZM18.3524 0.283642L12.0456 10.545L12.8976 11.0686L19.2044 0.807266L18.3524 0.283642ZM11.9716 10.8068V18H12.9716V10.8068H11.9716ZM12.4716 17.5H10.358V18.5H12.4716V17.5ZM10.858 18V10.8068H9.85795V18H10.858ZM10.7839 10.545L4.47711 0.283642L3.62516 0.807266L9.93198 11.0686L10.7839 10.545ZM23.6257 0.545454H24.1257V0.045454H23.6257V0.545454ZM23.6257 18V18.5H24.1257V18H23.6257ZM21.5121 18H21.0121V18.5H21.5121V18ZM21.5121 0.545454V0.045454H21.0121V0.545454H21.5121ZM23.1257 0.545454V18H24.1257V0.545454H23.1257ZM23.6257 17.5H21.5121V18.5H23.6257V17.5ZM22.0121 18V0.545454H21.0121V18H22.0121ZM21.5121 1.04545H23.6257V0.045454H21.5121V1.04545ZM27.8636 18H27.3636V18.5H27.8636V18ZM27.8636 0.545454V0.045454H27.3636V0.545454H27.8636ZM29.9773 0.545454H30.4773V0.045454H29.9773V0.545454ZM29.9773 16.125H29.4773V16.625H29.9773V16.125ZM38.0909 16.125H38.5909V15.625H38.0909V16.125ZM38.0909 18V18.5H38.5909V18H38.0909ZM28.3636 18V0.545454H27.3636V18H28.3636ZM27.8636 1.04545H29.9773V0.045454H27.8636V1.04545ZM29.4773 0.545454V16.125H30.4773V0.545454H29.4773ZM29.9773 16.625H38.0909V15.625H29.9773V16.625ZM37.5909 16.125V18H38.5909V16.125H37.5909ZM38.0909 17.5H27.8636V18.5H38.0909V17.5ZM43.4773 0.545454H43.9773V0.045454H43.4773V0.545454ZM43.4773 18V18.5H43.9773V18H43.4773ZM41.3636 18H40.8636V18.5H41.3636V18ZM41.3636 0.545454V0.045454H40.8636V0.545454H41.3636ZM42.9773 0.545454V18H43.9773V0.545454H42.9773ZM43.4773 17.5H41.3636V18.5H43.4773V17.5ZM41.8636 18V0.545454H40.8636V18H41.8636ZM41.3636 1.04545H43.4773V0.045454H41.3636V1.04545ZM57.2969 18H57.7969V17.5H57.2969V18ZM57.2969 19.875V20.375H57.7969V19.875H57.2969ZM46.3878 19.875H45.8878V20.375H46.3878V19.875ZM46.3878 18V17.5H45.8878V18H46.3878ZM56.7969 18V19.875H57.7969V18H56.7969ZM57.2969 19.375H46.3878V20.375H57.2969V19.375ZM46.8878 19.875V18H45.8878V19.875H46.8878ZM46.3878 18.5H57.2969V17.5H46.3878V18.5ZM59.3871 18H58.8871V18.5H59.3871V18ZM59.3871 0.545454V0.045454H58.8871V0.545454H59.3871ZM61.5007 0.545454H62.0007V0.045454H61.5007V0.545454ZM61.5007 16.125H61.0007V16.625H61.5007V16.125ZM69.6143 16.125H70.1143V15.625H69.6143V16.125ZM69.6143 18V18.5H70.1143V18H69.6143ZM59.8871 18V0.545454H58.8871V18H59.8871ZM59.3871 1.04545H61.5007V0.045454H59.3871V1.04545ZM61.0007 0.545454V16.125H62.0007V0.545454H61.0007ZM61.5007 16.625H69.6143V15.625H61.5007V16.625ZM69.1143 16.125V18H70.1143V16.125H69.1143ZM69.6143 17.5H59.3871V18.5H69.6143V17.5ZM84.3416 0.545454V0.045454H83.8416V0.545454H84.3416ZM86.4553 0.545454H86.9553V0.045454H86.4553V0.545454ZM85.6115 15.2983L85.1828 15.041L85.1823 15.0418L85.6115 15.2983ZM83.2507 17.5057L83.4832 17.9484L83.4851 17.9473L83.2507 17.5057ZM76.0916 17.5057L75.8572 17.9473L75.8592 17.9484L76.0916 17.5057ZM73.7223 15.2983L73.2924 15.5536L73.2942 15.5567L73.7223 15.2983ZM72.8871 0.545454V0.045454H72.3871V0.545454H72.8871ZM75.0007 0.545454H75.5007V0.045454H75.0007V0.545454ZM75.5632 14.2074L75.1277 14.453L75.1286 14.4546L75.5632 14.2074ZM77.1655 15.767L76.9248 16.2053L76.9291 16.2076L77.1655 15.767ZM82.1768 15.767L82.4133 16.2076L82.416 16.2061L82.1768 15.767ZM83.7791 14.2074L83.3436 13.9617L83.3429 13.963L83.7791 14.2074ZM84.3416 1.04545H86.4553V0.045454H84.3416V1.04545ZM85.9553 0.545454V12.1023H86.9553V0.545454H85.9553ZM85.9553 12.1023C85.9553 13.2134 85.6944 14.1883 85.1828 15.041L86.0403 15.5555C86.6536 14.5333 86.9553 13.3775 86.9553 12.1023H85.9553ZM85.1823 15.0418C84.6752 15.8905 83.9578 16.5643 83.0163 17.064L83.4851 17.9473C84.5777 17.3675 85.4342 16.5698 86.0407 15.5548L85.1823 15.0418ZM83.0182 17.063C82.0855 17.5529 80.975 17.8068 79.6712 17.8068V18.8068C81.106 18.8068 82.3819 18.5267 83.4832 17.9484L83.0182 17.063ZM79.6712 17.8068C78.3674 17.8068 77.2569 17.5529 76.3241 17.063L75.8592 17.9484C76.9605 18.5267 78.2363 18.8068 79.6712 18.8068V17.8068ZM76.326 17.064C75.3841 16.5641 74.6633 15.8897 74.1504 15.0399L73.2942 15.5567C73.9063 16.5705 74.765 17.3677 75.8572 17.9473L76.326 17.064ZM74.1522 15.043C73.6455 14.1899 73.3871 13.2143 73.3871 12.1023H72.3871C72.3871 13.3766 72.6854 14.5317 73.2924 15.5536L74.1522 15.043ZM73.3871 12.1023V0.545454H72.3871V12.1023H73.3871ZM72.8871 1.04545H75.0007V0.045454H72.8871V1.04545ZM74.5007 0.545454V11.9318H75.5007V0.545454H74.5007ZM74.5007 11.9318C74.5007 12.8599 74.7057 13.7049 75.1277 14.453L75.9987 13.9617C75.6708 13.3804 75.5007 12.7083 75.5007 11.9318H74.5007ZM75.1286 14.4546C75.5514 15.1976 76.1542 15.7821 76.9248 16.2053L77.4062 15.3288C76.7904 14.9906 76.3251 14.5353 75.9978 13.9601L75.1286 14.4546ZM76.9291 16.2076C77.7152 16.6295 78.6354 16.8295 79.6712 16.8295V15.8295C78.7637 15.8295 78.0134 15.6546 77.4019 15.3265L76.9291 16.2076ZM79.6712 16.8295C80.7069 16.8295 81.6271 16.6295 82.4133 16.2076L81.9404 15.3265C81.3289 15.6546 80.5786 15.8295 79.6712 15.8295V16.8295ZM82.416 16.2061C83.193 15.7829 83.7975 15.1975 84.2153 14.4518L83.3429 13.963C83.0222 14.5354 82.5585 14.9898 81.9377 15.328L82.416 16.2061ZM84.2146 14.453C84.6367 13.7049 84.8416 12.8599 84.8416 11.9318H83.8416C83.8416 12.7083 83.6716 13.3804 83.3436 13.9617L84.2146 14.453ZM84.8416 11.9318V0.545454H83.8416V11.9318H84.8416Z" fill="black"/>
</g>
<defs>
<filter id="filter0_dd_1_2" x="0.0511322" y="0.545441" width="90.4041" height="27.3296" filterUnits="userSpaceOnUse" color-interpolation-filters="sRGB">
<feFlood flood-opacity="0" result="BackgroundImageFix"/>
<feColorMatrix in="SourceAlpha" type="matrix" values="0 0 0 0 0 0 0 0 0 0 0 0 0 0 0 0 0 0 127 0" result="hardAlpha"/>
<feOffset dy="4"/>
<feGaussianBlur stdDeviation="2"/>
<feComposite in2="hardAlpha" operator="out"/>
<feColorMatrix type="matrix" values="0 0 0 0 0 0 0 0 0 0 0 0 0 0 0 0 0 0 0.25 0"/>
<feBlend mode="normal" in2="BackgroundImageFix" result="effect1_dropShadow_1_2"/>
<feColorMatrix in="SourceAlpha" type="matrix" values="0 0 0 0 0 0 0 0 0 0 0 0 0 0 0 0 0 0 127 0" result="hardAlpha"/>
<feOffset dy="4"/>
<feGaussianBlur stdDeviation="2"/>
<feComposite in2="hardAlpha" operator="out"/>
<feColorMatrix type="matrix" values="0 0 0 0 0 0 0 0 0 0 0 0 0 0 0 0 0 0 0.25 0"/>
<feBlend mode="normal" in2="effect1_dropShadow_1_2" result="effect2_dropShadow_1_2"/>
<feBlend mode="normal" in="SourceGraphic" in2="effect2_dropShadow_1_2" result="shape"/>
</filter>
</defs>
</svg>
